<svg width="24" height="20" viewBox="0 0 24 20" fill="none" xmlns="http://www.w3.org/2000/svg">
<path d="M20.0022 9.29478H22.0022C22.0022 5.16079 18.1292 2.04297 12.9922 2.04297V3.65466C17.0542 3.65466 20.0022 6.02626 20.0022 9.29478Z" fill="white"/>
<path d="M13.0003 6.87795C15.1033 6.87795 16.0003 7.60079 16.0003 9.29548H18.0003C18.0003 6.69663 16.2253 5.26625 13.0003 5.26625V6.87795ZM16.4223 11.2642C16.2301 11.1234 15.9776 11.0484 15.7181 11.0548C15.4585 11.0613 15.2123 11.1488 15.0313 11.2988L12.6383 13.282C12.0623 13.1934 10.9043 12.9025 9.71228 11.9443C8.52028 10.9829 8.15928 10.0473 8.05228 9.5864L10.5113 7.6572C10.6977 7.51144 10.8064 7.31296 10.8144 7.10375C10.8225 6.89454 10.7292 6.69102 10.5543 6.53627L6.85928 3.26212C6.68432 3.10688 6.44116 3.01271 6.18143 2.99962C5.92171 2.98653 5.66588 3.05554 5.46828 3.19201L3.29828 4.69169C3.12539 4.83151 3.0222 5.01761 3.00828 5.21468C2.99328 5.41614 2.70728 10.1884 7.29928 13.8904C11.3053 17.1178 16.3233 17.3539 17.7053 17.3539C17.9073 17.3539 18.0313 17.3491 18.0643 17.3475C18.3088 17.3365 18.5396 17.2529 18.7123 17.113L20.5723 15.3635C20.7417 15.2044 20.8276 14.9983 20.8115 14.789C20.7954 14.5797 20.6788 14.3837 20.4863 14.2426L16.4223 11.2642V11.2642Z" fill="white"/>
</svg>
