<svg width="23" height="22" viewBox="0 0 23 22" fill="none" xmlns="http://www.w3.org/2000/svg">
<g clip-path="url(#clip0_1794_1842)">
<path d="M21 10.0699V10.9999C20.9988 13.1563 20.3005 15.2545 19.0093 16.9817C17.7182 18.7088 15.9033 19.9723 13.8354 20.5838C11.7674 21.1952 9.55726 21.1218 7.53447 20.3744C5.51168 19.6271 3.78465 18.246 2.61096 16.4369C1.43727 14.6279 0.879791 12.4879 1.02168 10.3362C1.16356 8.18443 1.99721 6.13619 3.39828 4.49694C4.79935 2.85768 6.69279 1.71525 8.79619 1.24001C10.8996 0.764774 13.1003 0.982201 15.07 1.85986" stroke="black" stroke-width="2" stroke-linecap="round" stroke-linejoin="round"/>
<path d="M22 2L11 13L8 10" stroke="black" stroke-width="2" stroke-linecap="round" stroke-linejoin="round"/>
</g>
<defs>
<clipPath id="clip0_1794_1842">
<rect width="23" height="22" fill="white"/>
</clipPath>
</defs>
</svg>
