<svg width="48" height="48" viewBox="0 0 48 48" fill="none" xmlns="http://www.w3.org/2000/svg">
<path d="M24 0C19.2533 0 14.6131 1.40757 10.6663 4.04473C6.71954 6.68188 3.6434 10.4302 1.8269 14.8156C0.0103989 19.201 -0.464881 24.0266 0.461164 28.6822C1.38721 33.3377 3.67299 37.6141 7.02945 40.9706C10.3859 44.327 14.6623 46.6128 19.3178 47.5388C23.9734 48.4649 28.799 47.9896 33.1844 46.1731C37.5698 44.3566 41.3181 41.2805 43.9553 37.3337C46.5924 33.3869 48 28.7467 48 24C48 17.6348 45.4714 11.5303 40.9706 7.02944C36.4697 2.52856 30.3652 0 24 0ZM32.7273 26.1818H24C23.4213 26.1818 22.8664 25.9519 22.4572 25.5428C22.0481 25.1336 21.8182 24.5786 21.8182 24V10.9091C21.8182 10.3304 22.0481 9.77548 22.4572 9.36631C22.8664 8.95714 23.4213 8.72727 24 8.72727C24.5787 8.72727 25.1336 8.95714 25.5428 9.36631C25.952 9.77548 26.1818 10.3304 26.1818 10.9091V21.8182H32.7273C33.3059 21.8182 33.8609 22.048 34.2701 22.4572C34.6792 22.8664 34.9091 23.4213 34.9091 24C34.9091 24.5786 34.6792 25.1336 34.2701 25.5428C33.8609 25.9519 33.3059 26.1818 32.7273 26.1818Z" fill="#030C2B"/>
</svg>
