<svg width="28" height="28" viewBox="0 0 28 28" fill="none" xmlns="http://www.w3.org/2000/svg">
<path d="M20.7791 5.32031H7.22151C6.71747 5.32091 6.23423 5.5214 5.87782 5.87782C5.5214 6.23423 5.32091 6.71747 5.32031 7.22151V20.7791C5.32091 21.2832 5.5214 21.7664 5.87782 22.1228C6.23423 22.4792 6.71747 22.6797 7.22151 22.6803H13.3451C13.4194 22.6803 13.4906 22.6508 13.5431 22.5983C13.5956 22.5458 13.6251 22.4746 13.6251 22.4003V16.1087C13.6251 16.0345 13.5956 15.9632 13.5431 15.9107C13.4906 15.8582 13.4194 15.8287 13.3451 15.8287H12.1775V14.3699H13.3451C13.4194 14.3699 13.4906 14.3404 13.5431 14.2879C13.5956 14.2354 13.6251 14.1642 13.6251 14.0899V13.6307C13.6251 12.1562 14.0535 10.9366 14.8311 10.1968C15.4731 9.58919 16.4176 9.24031 17.4219 9.24031C17.8184 9.24031 18.1874 9.27475 18.5223 9.34279V10.8923C18.3011 10.8495 18.0662 10.8279 17.8195 10.8279C16.4974 10.8279 15.7391 11.818 15.7391 13.5439V14.0899C15.7391 14.1642 15.7686 14.2354 15.8211 14.2879C15.8736 14.3404 15.9449 14.3699 16.0191 14.3699H17.9786L17.4992 15.8287H16.0415C15.9673 15.8287 15.896 15.8582 15.8435 15.9107C15.791 15.9632 15.7615 16.0345 15.7615 16.1087V22.4003C15.7615 22.4746 15.791 22.5458 15.8435 22.5983C15.896 22.6508 15.9673 22.6803 16.0415 22.6803H20.7791C21.2832 22.6797 21.7664 22.4792 22.1228 22.1228C22.4792 21.7664 22.6797 21.2832 22.6803 20.7791V7.22151C22.6797 6.71747 22.4792 6.23423 22.1228 5.87782C21.7664 5.5214 21.2832 5.32091 20.7791 5.32031Z" fill="white"/>
</svg>
