<svg width="51" height="51" viewBox="0 0 51 51" fill="none" xmlns="http://www.w3.org/2000/svg">
<path d="M25.5009 23.6034L45.8691 10.5187C45.0502 9.90454 44.0558 9.56935 43.0322 9.5625H7.96969C6.94608 9.56935 5.95169 9.90454 5.13281 10.5187L25.5009 23.6034Z" fill="#030C2B"/>
<path d="M26.3606 26.8384L26.0897 26.9659H25.9622C25.8154 27.0315 25.6596 27.0745 25.5 27.0934C25.3677 27.1101 25.2339 27.1101 25.1016 27.0934H24.9741L24.7031 26.9659L3.34687 13.1641C3.24484 13.549 3.1913 13.9452 3.1875 14.3434V36.6559C3.1875 37.924 3.69124 39.1401 4.5879 40.0368C5.48455 40.9335 6.70068 41.4372 7.96875 41.4372H43.0312C44.2993 41.4372 45.5154 40.9335 46.4121 40.0368C47.3088 39.1401 47.8125 37.924 47.8125 36.6559V14.3434C47.8087 13.9452 47.7552 13.549 47.6531 13.1641L26.3606 26.8384Z" fill="#030C2B"/>
</svg>
