<svg width="40" height="42" viewBox="0 0 40 42" fill="none" xmlns="http://www.w3.org/2000/svg">
<g clip-path="url(#clip0_1789_1839)">
<path d="M25.8359 1.75H12.5026C10.2026 1.75 8.33594 3.71 8.33594 6.125V35.875C8.33594 38.29 10.2026 40.25 12.5026 40.25H25.8359C28.1359 40.25 30.0026 38.29 30.0026 35.875V6.125C30.0026 3.71 28.1359 1.75 25.8359 1.75ZM19.1693 38.5C17.7859 38.5 16.6693 37.3275 16.6693 35.875C16.6693 34.4225 17.7859 33.25 19.1693 33.25C20.5526 33.25 21.6693 34.4225 21.6693 35.875C21.6693 37.3275 20.5526 38.5 19.1693 38.5ZM26.6693 31.5H11.6693V7H26.6693V31.5Z" fill="#030C2B"/>
</g>
<defs>
<clipPath id="clip0_1789_1839">
<rect width="40" height="42" fill="white"/>
</clipPath>
</defs>
</svg>
