<svg xmlns="http://www.w3.org/2000/svg" xmlns:xlink="http://www.w3.org/1999/xlink" width="385" zoomAndPan="magnify" viewBox="0 0 288.75 126.749998" height="169" preserveAspectRatio="xMidYMid meet" version="1.0"><defs><g/><clipPath id="6a35f3e7c7"><path d="M 0.160156 0 L 288.339844 0 L 288.339844 126.5 L 0.160156 126.5 Z M 0.160156 0 " clip-rule="nonzero"/></clipPath><clipPath id="7fdc32d1ae"><path d="M 0.265625 0.214844 L 89.300781 0.214844 L 89.300781 99.71875 L 0.265625 99.71875 Z M 0.265625 0.214844 " clip-rule="nonzero"/></clipPath><clipPath id="efefcc00d2"><path d="M 189.261719 39.414062 L 212.847656 39.414062 L 212.847656 63.457031 L 189.261719 63.457031 Z M 189.261719 39.414062 " clip-rule="nonzero"/></clipPath></defs><g clip-path="url(#6a35f3e7c7)"><path fill="#ffffff" d="M 0.160156 0 L 288.339844 0 L 288.339844 126.5 L 0.160156 126.5 Z M 0.160156 0 " fill-opacity="1" fill-rule="nonzero"/></g><path fill="#030c2b" d="M 51.628906 64.882812 C 51.628906 64.882812 51.78125 64.785156 52.09375 64.628906 C 52.40625 64.480469 52.882812 64.265625 53.550781 64.121094 C 54.214844 63.980469 55.082031 63.890625 56.070312 64.140625 C 56.5625 64.265625 57.074219 64.476562 57.566406 64.792969 C 58.058594 65.113281 58.527344 65.53125 58.949219 66.027344 C 59.375 66.527344 59.75 67.109375 60.089844 67.730469 C 60.429688 68.359375 60.738281 69.023438 61.042969 69.726562 C 61.65625 71.128906 62.214844 72.675781 62.796875 74.328125 C 63.382812 75.976562 63.96875 77.742188 64.632812 79.574219 C 65.296875 81.398438 66.007812 83.316406 66.929688 85.183594 C 67.390625 86.109375 67.90625 87.03125 68.523438 87.828125 C 68.832031 88.222656 69.167969 88.582031 69.523438 88.863281 C 69.609375 88.9375 69.703125 88.988281 69.792969 89.054688 C 69.882812 89.101562 69.972656 89.164062 70.0625 89.203125 C 70.242188 89.292969 70.421875 89.347656 70.597656 89.375 C 70.773438 89.410156 70.949219 89.402344 71.132812 89.378906 C 71.3125 89.355469 71.503906 89.289062 71.699219 89.214844 C 72.085938 89.042969 72.5 88.765625 72.875 88.429688 L 72.917969 88.390625 C 72.929688 88.378906 72.933594 88.375 72.945312 88.363281 L 72.992188 88.3125 C 73.023438 88.273438 73.054688 88.25 73.09375 88.203125 C 73.164062 88.113281 73.246094 88.03125 73.3125 87.929688 L 73.421875 87.785156 L 73.523438 87.628906 C 73.589844 87.527344 73.652344 87.414062 73.714844 87.304688 C 73.964844 86.855469 74.167969 86.347656 74.351562 85.816406 C 74.707031 84.746094 74.960938 83.570312 75.183594 82.359375 C 75.40625 81.144531 75.59375 79.886719 75.792969 78.609375 C 76.191406 76.042969 76.640625 73.375 77.460938 70.683594 C 77.867188 69.34375 78.375 67.992188 79.039062 66.683594 C 79.699219 65.375 80.527344 64.113281 81.53125 62.964844 C 82.53125 61.816406 83.726562 60.8125 85.035156 59.988281 C 85.691406 59.582031 86.378906 59.230469 87.082031 58.914062 L 87.613281 58.691406 C 87.789062 58.617188 87.972656 58.554688 88.148438 58.484375 L 88.417969 58.386719 L 88.71875 58.289062 L 89.726562 57.972656 C 89.90625 57.921875 90.105469 57.875 90.289062 57.828125 L 90.859375 57.6875 C 91.050781 57.640625 91.242188 57.589844 91.425781 57.5625 C 91.792969 57.492188 92.167969 57.421875 92.539062 57.355469 C 92.910156 57.296875 93.285156 57.253906 93.65625 57.203125 C 95.152344 57.03125 96.660156 56.972656 98.152344 57.023438 C 99.644531 57.078125 101.125 57.21875 102.589844 57.421875 C 104.054688 57.628906 105.5 57.90625 106.929688 58.214844 C 108.359375 58.523438 109.773438 58.886719 111.164062 59.25 C 112.550781 59.621094 113.933594 59.988281 115.3125 60.355469 C 118.070312 61.085938 120.804688 61.835938 123.523438 62.527344 C 124.878906 62.875 126.234375 63.210938 127.582031 63.527344 C 128.257812 63.683594 128.929688 63.847656 129.601562 64 C 130.273438 64.144531 130.941406 64.292969 131.613281 64.4375 C 134.285156 65.007812 136.941406 65.484375 139.558594 65.847656 C 144.785156 66.566406 149.9375 66.816406 154.796875 66.761719 C 159.664062 66.707031 164.261719 66.320312 168.46875 65.6875 C 170.570312 65.375 172.578125 64.992188 174.472656 64.578125 C 176.367188 64.160156 178.152344 63.703125 179.8125 63.214844 C 183.136719 62.234375 185.980469 61.1875 188.269531 60.1875 C 190.554688 59.1875 192.316406 58.308594 193.492188 57.664062 C 193.789062 57.507812 194.046875 57.359375 194.269531 57.234375 C 194.492188 57.109375 194.683594 57.003906 194.832031 56.921875 C 195.136719 56.75 195.292969 56.664062 195.292969 56.664062 C 195.292969 56.664062 195.144531 56.765625 194.859375 56.960938 C 194.714844 57.058594 194.539062 57.183594 194.324219 57.328125 C 194.117188 57.476562 193.871094 57.644531 193.585938 57.820312 C 193.304688 58.003906 192.984375 58.207031 192.640625 58.429688 C 192.289062 58.648438 191.898438 58.878906 191.480469 59.132812 C 190.640625 59.636719 189.660156 60.1875 188.542969 60.765625 C 186.308594 61.929688 183.511719 63.203125 180.195312 64.394531 C 176.882812 65.578125 173.046875 66.671875 168.789062 67.515625 C 166.65625 67.9375 164.421875 68.292969 162.097656 68.578125 C 159.773438 68.859375 157.355469 69.058594 154.867188 69.175781 C 149.890625 69.398438 144.628906 69.296875 139.199219 68.667969 C 136.488281 68.363281 133.757812 67.910156 131.015625 67.378906 C 130.328125 67.246094 129.644531 67.101562 128.957031 66.960938 C 128.269531 66.820312 127.585938 66.667969 126.894531 66.519531 C 125.519531 66.207031 124.144531 65.882812 122.769531 65.546875 C 120.015625 64.871094 117.253906 64.15625 114.496094 63.425781 C 113.117188 63.066406 111.738281 62.703125 110.355469 62.339844 C 108.980469 61.984375 107.617188 61.640625 106.246094 61.34375 C 104.875 61.046875 103.507812 60.78125 102.136719 60.582031 C 100.769531 60.386719 99.402344 60.253906 98.042969 60.199219 L 97.027344 60.179688 C 96.6875 60.171875 96.351562 60.191406 96.015625 60.195312 C 95.847656 60.203125 95.675781 60.199219 95.511719 60.210938 L 95.007812 60.246094 C 94.675781 60.269531 94.339844 60.28125 94.011719 60.332031 C 93.679688 60.371094 93.347656 60.40625 93.019531 60.453125 C 92.695312 60.511719 92.367188 60.566406 92.042969 60.625 C 91.878906 60.648438 91.726562 60.6875 91.574219 60.726562 L 91.113281 60.832031 C 90.957031 60.871094 90.808594 60.902344 90.648438 60.945312 L 89.632812 61.25 L 89.445312 61.308594 C 89.445312 61.308594 89.355469 61.335938 89.429688 61.3125 L 89.203125 61.394531 C 89.054688 61.449219 88.902344 61.5 88.753906 61.5625 L 88.3125 61.742188 C 87.730469 61.996094 87.171875 62.28125 86.632812 62.597656 C 85.566406 63.246094 84.59375 64.03125 83.765625 64.953125 C 82.933594 65.875 82.222656 66.914062 81.636719 68.03125 C 81.046875 69.144531 80.558594 70.328125 80.160156 71.542969 C 79.351562 73.976562 78.867188 76.523438 78.394531 79.050781 C 78.15625 80.320312 77.929688 81.585938 77.660156 82.847656 C 77.390625 84.113281 77.082031 85.378906 76.613281 86.628906 C 76.375 87.25 76.101562 87.875 75.738281 88.476562 C 75.644531 88.625 75.558594 88.773438 75.449219 88.921875 L 75.296875 89.140625 L 75.128906 89.351562 C 75.019531 89.496094 74.890625 89.628906 74.765625 89.765625 C 74.707031 89.832031 74.621094 89.90625 74.550781 89.976562 L 74.4375 90.082031 L 74.382812 90.132812 L 74.339844 90.167969 C 73.808594 90.605469 73.21875 90.988281 72.515625 91.265625 C 71.816406 91.535156 70.972656 91.652344 70.183594 91.472656 C 69.792969 91.390625 69.421875 91.25 69.097656 91.070312 C 68.925781 90.984375 68.78125 90.878906 68.625 90.78125 C 68.484375 90.675781 68.339844 90.574219 68.210938 90.457031 C 67.691406 90.011719 67.277344 89.515625 66.917969 89.015625 C 66.210938 88.011719 65.699219 86.980469 65.253906 85.964844 C 64.808594 84.945312 64.433594 83.9375 64.09375 82.953125 C 63.753906 81.96875 63.449219 81 63.164062 80.054688 C 62.601562 78.167969 62.101562 76.378906 61.625 74.703125 C 61.148438 73.027344 60.679688 71.472656 60.183594 70.0625 C 59.683594 68.65625 59.167969 67.390625 58.453125 66.425781 C 57.746094 65.453125 56.847656 64.808594 55.960938 64.507812 C 55.070312 64.207031 54.234375 64.214844 53.582031 64.300781 C 52.925781 64.394531 52.4375 64.554688 52.113281 64.675781 C 51.789062 64.796875 51.628906 64.882812 51.628906 64.882812 " fill-opacity="1" fill-rule="nonzero"/><g clip-path="url(#7fdc32d1ae)"><path fill="#030c2b" d="M 87.503906 30.28125 C 87.503906 30.28125 87.535156 30.035156 87.597656 29.558594 C 87.65625 29.082031 87.738281 28.375 87.832031 27.453125 C 87.921875 26.53125 88.015625 25.390625 88.082031 24.054688 C 88.136719 22.714844 88.167969 21.179688 88.066406 19.476562 C 88.015625 18.628906 87.921875 17.738281 87.773438 16.820312 C 87.625 15.90625 87.414062 14.964844 87.085938 14.039062 C 86.757812 13.117188 86.316406 12.207031 85.703125 11.441406 C 85.089844 10.675781 84.300781 10.078125 83.355469 9.75 C 82.414062 9.417969 81.328125 9.339844 80.1875 9.464844 C 79.046875 9.59375 77.859375 9.910156 76.664062 10.34375 C 75.46875 10.785156 74.257812 11.332031 73.042969 11.964844 C 72.4375 12.28125 71.828125 12.617188 71.21875 12.972656 C 70.628906 13.320312 69.964844 13.726562 69.25 14.097656 C 67.851562 14.839844 66.332031 15.464844 64.714844 15.925781 C 63.097656 16.386719 61.382812 16.671875 59.628906 16.734375 C 57.875 16.800781 56.089844 16.640625 54.339844 16.308594 C 52.585938 15.972656 50.863281 15.46875 49.179688 14.863281 C 47.496094 14.257812 45.855469 13.546875 44.238281 12.792969 C 42.617188 12.042969 41.019531 11.25 39.425781 10.476562 C 37.828125 9.699219 36.230469 8.9375 34.621094 8.238281 C 33.007812 7.542969 31.378906 6.921875 29.730469 6.441406 C 26.433594 5.476562 23.054688 5.128906 19.757812 5.757812 C 18.933594 5.910156 18.117188 6.121094 17.308594 6.378906 C 17.105469 6.449219 16.902344 6.511719 16.703125 6.585938 L 16.550781 6.640625 C 16.480469 6.667969 16.566406 6.632812 16.527344 6.648438 L 16.441406 6.683594 L 16.105469 6.816406 C 15.996094 6.859375 15.871094 6.902344 15.777344 6.945312 L 15.519531 7.0625 L 15.257812 7.175781 C 15.167969 7.21875 15.074219 7.265625 14.984375 7.308594 C 13.507812 8.027344 12.171875 8.972656 11.039062 10.132812 C 9.902344 11.296875 8.960938 12.667969 8.226562 14.195312 C 7.488281 15.71875 6.953125 17.390625 6.589844 19.132812 C 6.226562 20.875 6.027344 22.6875 5.964844 24.523438 C 5.933594 25.445312 5.933594 26.371094 5.960938 27.300781 C 5.992188 28.230469 6.050781 29.164062 6.136719 30.097656 C 6.46875 33.835938 7.210938 37.578125 8.207031 41.246094 C 8.703125 43.082031 9.277344 44.898438 9.894531 46.695312 C 10.523438 48.488281 11.203125 50.257812 11.9375 52 C 12.117188 52.4375 12.308594 52.867188 12.496094 53.300781 C 12.691406 53.746094 12.886719 54.1875 13.082031 54.628906 C 13.476562 55.515625 13.867188 56.394531 14.257812 57.273438 C 15.042969 59.035156 15.824219 60.785156 16.601562 62.527344 C 18.160156 66.007812 19.742188 69.4375 21.1875 72.929688 C 21.554688 73.804688 21.902344 74.683594 22.246094 75.566406 C 22.582031 76.453125 22.910156 77.34375 23.214844 78.242188 C 23.515625 79.144531 23.800781 80.046875 24.058594 80.953125 C 24.3125 81.859375 24.546875 82.769531 24.753906 83.671875 C 25.171875 85.480469 25.496094 87.273438 25.777344 89.035156 C 25.84375 89.476562 25.914062 89.914062 25.980469 90.351562 C 26 90.46875 26.046875 90.792969 26.074219 90.914062 L 26.121094 91.144531 L 26.183594 91.398438 C 26.351562 92.074219 26.585938 92.714844 26.894531 93.289062 C 27.5 94.441406 28.402344 95.3125 29.40625 95.703125 C 30.40625 96.105469 31.535156 96.027344 32.644531 95.542969 C 33.199219 95.296875 33.742188 94.960938 34.25 94.546875 C 34.761719 94.132812 35.238281 93.65625 35.683594 93.140625 C 36.574219 92.101562 37.320312 90.910156 37.96875 89.683594 C 38.613281 88.445312 39.15625 87.167969 39.617188 85.882812 C 40.078125 84.59375 40.460938 83.304688 40.796875 82.027344 C 40.960938 81.378906 41.121094 80.734375 41.277344 80.101562 C 41.363281 79.773438 41.445312 79.449219 41.527344 79.128906 C 41.613281 78.808594 41.699219 78.492188 41.785156 78.179688 C 42.132812 76.921875 42.5 75.707031 42.902344 74.542969 C 43.304688 73.378906 43.726562 72.261719 44.1875 71.199219 C 44.644531 70.136719 45.136719 69.128906 45.679688 68.191406 C 45.945312 67.722656 46.226562 67.273438 46.515625 66.839844 C 46.808594 66.40625 47.109375 65.996094 47.425781 65.605469 C 48.054688 64.824219 48.75 64.140625 49.480469 63.582031 C 50.210938 63.023438 50.992188 62.605469 51.769531 62.332031 C 52.542969 62.054688 53.3125 61.945312 54.011719 61.921875 C 55.425781 61.886719 56.574219 62.199219 57.464844 62.496094 C 58.355469 62.796875 59 63.109375 59.433594 63.320312 C 59.863281 63.53125 60.082031 63.648438 60.082031 63.648438 C 60.082031 63.648438 59.851562 63.558594 59.398438 63.398438 C 58.949219 63.242188 58.269531 63.015625 57.375 62.8125 C 56.925781 62.714844 56.421875 62.625 55.867188 62.582031 C 55.3125 62.53125 54.707031 62.527344 54.066406 62.609375 C 53.429688 62.695312 52.761719 62.871094 52.105469 63.175781 C 51.449219 63.480469 50.808594 63.910156 50.207031 64.460938 C 49.011719 65.566406 47.988281 67.125 47.144531 68.953125 C 46.296875 70.789062 45.59375 72.882812 45.003906 75.175781 C 44.710938 76.324219 44.4375 77.515625 44.1875 78.753906 C 44.125 79.0625 44.066406 79.375 44.003906 79.691406 C 43.945312 80.003906 43.886719 80.316406 43.828125 80.636719 C 43.714844 81.289062 43.597656 81.953125 43.480469 82.628906 C 43.226562 83.996094 42.898438 85.390625 42.488281 86.808594 C 42.082031 88.230469 41.574219 89.667969 40.933594 91.113281 C 40.289062 92.554688 39.492188 93.996094 38.445312 95.367188 C 37.921875 96.054688 37.328125 96.71875 36.648438 97.335938 C 35.96875 97.949219 35.1875 98.515625 34.300781 98.96875 C 33.410156 99.421875 32.40625 99.761719 31.328125 99.871094 C 30.789062 99.925781 30.238281 99.929688 29.6875 99.871094 C 29.136719 99.8125 28.589844 99.691406 28.0625 99.515625 C 27.003906 99.164062 26.03125 98.585938 25.214844 97.871094 C 24.808594 97.515625 24.433594 97.125 24.09375 96.714844 C 23.753906 96.300781 23.453125 95.863281 23.183594 95.414062 C 22.644531 94.511719 22.234375 93.550781 21.949219 92.5625 L 21.84375 92.191406 L 21.75 91.789062 C 21.679688 91.488281 21.660156 91.386719 21.597656 91.078125 C 21.519531 90.660156 21.4375 90.242188 21.359375 89.820312 C 21.023438 88.144531 20.652344 86.46875 20.203125 84.8125 C 19.753906 83.152344 19.226562 81.511719 18.617188 79.871094 C 18.3125 79.050781 17.984375 78.230469 17.644531 77.40625 C 17.296875 76.585938 16.9375 75.757812 16.5625 74.929688 C 15.820312 73.265625 15.015625 71.59375 14.21875 69.894531 C 13.410156 68.191406 12.597656 66.476562 11.777344 64.753906 C 10.957031 63.023438 10.136719 61.28125 9.308594 59.527344 C 8.902344 58.648438 8.496094 57.765625 8.085938 56.882812 C 7.882812 56.441406 7.679688 55.996094 7.476562 55.554688 C 7.269531 55.097656 7.0625 54.640625 6.863281 54.179688 C 5.253906 50.5 3.863281 46.683594 2.765625 42.746094 C 1.667969 38.8125 0.855469 34.757812 0.476562 30.605469 C 0.382812 29.566406 0.320312 28.523438 0.285156 27.476562 C 0.257812 26.425781 0.257812 25.371094 0.296875 24.316406 C 0.375 22.203125 0.621094 20.070312 1.074219 17.953125 C 1.304688 16.898438 1.585938 15.84375 1.9375 14.800781 C 2.292969 13.761719 2.710938 12.734375 3.210938 11.734375 C 4.199219 9.738281 5.507812 7.84375 7.125 6.242188 C 8.738281 4.636719 10.644531 3.339844 12.65625 2.40625 C 12.785156 2.347656 12.90625 2.289062 13.039062 2.234375 L 13.445312 2.0625 L 13.851562 1.894531 C 13.976562 1.84375 14.082031 1.808594 14.195312 1.765625 L 14.535156 1.644531 L 14.621094 1.613281 C 14.636719 1.605469 14.78125 1.554688 14.765625 1.5625 L 14.953125 1.496094 C 15.207031 1.410156 15.464844 1.332031 15.71875 1.253906 C 16.746094 0.949219 17.792969 0.703125 18.851562 0.53125 C 20.96875 0.179688 23.128906 0.128906 25.214844 0.339844 C 27.300781 0.542969 29.3125 1.023438 31.210938 1.632812 C 33.109375 2.246094 34.902344 3 36.617188 3.800781 C 38.332031 4.597656 39.964844 5.453125 41.550781 6.300781 C 43.136719 7.148438 44.679688 7.984375 46.199219 8.761719 C 47.722656 9.539062 49.222656 10.253906 50.714844 10.875 C 52.207031 11.492188 53.695312 12 55.179688 12.351562 C 56.660156 12.707031 58.132812 12.898438 59.582031 12.925781 C 61.03125 12.953125 62.453125 12.796875 63.828125 12.488281 C 65.207031 12.175781 66.53125 11.707031 67.796875 11.136719 C 68.417969 10.859375 69.03125 10.539062 69.714844 10.191406 C 70.386719 9.855469 71.058594 9.535156 71.730469 9.238281 C 73.082031 8.640625 74.4375 8.117188 75.816406 7.722656 C 77.195312 7.328125 78.597656 7.054688 80.015625 6.996094 C 80.726562 6.972656 81.4375 7 82.144531 7.113281 C 82.84375 7.222656 83.539062 7.421875 84.183594 7.710938 C 84.832031 8 85.429688 8.378906 85.945312 8.824219 C 86.464844 9.269531 86.898438 9.777344 87.257812 10.304688 C 87.976562 11.363281 88.394531 12.488281 88.671875 13.558594 C 88.949219 14.636719 89.085938 15.671875 89.160156 16.660156 C 89.234375 17.644531 89.238281 18.578125 89.210938 19.460938 C 89.152344 21.226562 88.972656 22.78125 88.769531 24.121094 C 88.574219 25.460938 88.351562 26.59375 88.15625 27.503906 C 87.964844 28.414062 87.796875 29.109375 87.683594 29.574219 C 87.566406 30.042969 87.503906 30.28125 87.503906 30.28125 " fill-opacity="1" fill-rule="nonzero"/></g><path fill="#030c2b" d="M 29.082031 20.109375 C 29.082031 20.109375 29.753906 20.085938 30.925781 20.011719 C 32.09375 19.933594 33.765625 19.808594 35.765625 19.597656 C 36.765625 19.492188 37.847656 19.371094 38.988281 19.226562 C 40.128906 19.082031 41.328125 18.910156 42.566406 18.722656 C 43.804688 18.527344 45.082031 18.320312 46.375 18.074219 C 47.667969 17.839844 48.972656 17.570312 50.273438 17.285156 C 50.925781 17.140625 51.574219 16.988281 52.21875 16.835938 C 52.859375 16.675781 53.503906 16.523438 54.132812 16.355469 C 55.398438 16.019531 56.636719 15.667969 57.820312 15.296875 C 58.414062 15.113281 58.996094 14.933594 59.558594 14.738281 C 60.121094 14.542969 60.675781 14.363281 61.207031 14.160156 C 62.273438 13.777344 63.261719 13.378906 64.167969 13 C 64.621094 12.804688 65.050781 12.617188 65.460938 12.4375 C 65.863281 12.246094 66.246094 12.0625 66.605469 11.894531 C 66.785156 11.808594 66.960938 11.726562 67.125 11.644531 C 67.289062 11.558594 67.445312 11.476562 67.597656 11.398438 C 67.902344 11.238281 68.179688 11.09375 68.433594 10.960938 C 68.929688 10.691406 69.308594 10.464844 69.574219 10.316406 C 69.835938 10.164062 69.976562 10.085938 69.976562 10.085938 L 71.519531 12.894531 C 71.519531 12.894531 71.363281 12.96875 71.066406 13.109375 C 70.773438 13.25 70.339844 13.464844 69.789062 13.714844 C 69.511719 13.835938 69.203125 13.96875 68.867188 14.109375 C 68.699219 14.183594 68.523438 14.257812 68.34375 14.335938 C 68.160156 14.410156 67.96875 14.480469 67.773438 14.558594 C 67.382812 14.710938 66.964844 14.871094 66.523438 15.039062 C 66.082031 15.195312 65.613281 15.359375 65.128906 15.53125 C 64.152344 15.851562 63.089844 16.191406 61.960938 16.503906 C 61.398438 16.671875 60.8125 16.816406 60.21875 16.972656 C 59.625 17.132812 59.011719 17.269531 58.390625 17.414062 C 57.148438 17.703125 55.859375 17.964844 54.546875 18.210938 C 53.894531 18.332031 53.230469 18.4375 52.566406 18.554688 C 51.898438 18.660156 51.230469 18.765625 50.5625 18.863281 C 49.222656 19.050781 47.882812 19.226562 46.5625 19.367188 C 45.246094 19.515625 43.941406 19.628906 42.683594 19.730469 C 41.425781 19.828125 40.207031 19.90625 39.054688 19.964844 C 37.898438 20.027344 36.804688 20.066406 35.796875 20.097656 C 33.78125 20.15625 32.101562 20.160156 30.929688 20.148438 C 29.753906 20.136719 29.082031 20.109375 29.082031 20.109375 " fill-opacity="1" fill-rule="nonzero"/><g clip-path="url(#efefcc00d2)"><path fill="#030c2b" d="M 213.171875 51.394531 C 202.503906 52.085938 201.945312 52.644531 201.253906 63.3125 C 200.5625 52.644531 200 52.085938 189.332031 51.394531 C 200 50.703125 200.5625 50.140625 201.253906 39.476562 C 201.945312 50.140625 202.503906 50.703125 213.171875 51.394531 " fill-opacity="1" fill-rule="nonzero"/></g><path fill="#030c2b" d="M 197.941406 61.988281 C 195.929688 62.117188 195.824219 62.222656 195.691406 64.238281 C 195.5625 62.222656 195.457031 62.117188 193.445312 61.988281 C 195.457031 61.859375 195.5625 61.753906 195.691406 59.742188 C 195.824219 61.753906 195.929688 61.859375 197.941406 61.988281 " fill-opacity="1" fill-rule="nonzero"/><path fill="#030c2b" d="M 186.085938 54.507812 C 180.726562 54.855469 180.445312 55.136719 180.097656 60.496094 C 179.75 55.136719 179.46875 54.855469 174.109375 54.507812 C 179.46875 54.164062 179.75 53.882812 180.097656 48.523438 C 180.445312 53.882812 180.726562 54.164062 186.085938 54.507812 " fill-opacity="1" fill-rule="nonzero"/><g fill="#000000" fill-opacity="1"><g transform="translate(46.132284, 44.378876)"><g><path d="M 2.675781 -0.429688 C 3.933594 0.324219 5.496094 0.503906 6.878906 -0.179688 C 8.011719 -0.753906 8.765625 -1.796875 8.765625 -3 C 8.765625 -4.203125 8.03125 -5.300781 6.773438 -5.890625 L 3.664062 -7.328125 C 2.785156 -7.777344 2.046875 -8.640625 2.046875 -9.574219 L 2.046875 -9.699219 C 2.101562 -11.175781 3.71875 -12.414062 5.066406 -12.414062 C 6.339844 -12.359375 7.527344 -11.585938 8.300781 -10.3125 L 8.515625 -10.4375 L 8.300781 -11.355469 C 8.28125 -11.371094 7.707031 -11.75 7.007812 -12.070312 C 6.917969 -12.109375 6.828125 -12.160156 6.738281 -12.214844 C 6.214844 -12.503906 5.640625 -12.71875 5.066406 -12.71875 C 3.144531 -12.71875 1.671875 -11.535156 1.597656 -9.738281 L 1.597656 -9.558594 C 1.597656 -8.390625 2.28125 -7.3125 3.359375 -6.753906 L 6.429688 -5.335938 C 7.457031 -4.851562 8.265625 -3.988281 8.265625 -3 C 8.265625 -1.976562 7.546875 -0.84375 6.46875 -0.324219 C 5.40625 0.160156 4.078125 0.0351562 3.035156 -0.609375 C 2.261719 -1.097656 1.617188 -1.851562 1.132812 -2.765625 C 1.132812 -2.785156 1.113281 -2.785156 1.113281 -2.785156 L 0.898438 -2.660156 L 0.898438 -2.640625 L 1.222656 -1.277344 C 1.238281 -1.257812 1.851562 -0.863281 2.675781 -0.429688 Z M 2.675781 -0.429688 "/></g></g></g><g fill="#000000" fill-opacity="1"><g transform="translate(55.797188, 44.378876)"><g><path d="M 0.898438 -0.25 L 0.898438 0 L 3.449219 0 L 3.449219 -0.25 C 2.820312 -0.25 2.300781 -0.359375 2.300781 -0.683594 L 2.300781 -12.070312 L 7.148438 -0.0898438 L 7.203125 -0.0898438 L 12 -12.160156 L 12 -0.683594 C 12 -0.359375 11.480469 -0.25 10.851562 -0.25 L 10.851562 0 L 13.796875 0 L 13.796875 -0.25 C 13.167969 -0.25 12.648438 -0.359375 12.648438 -0.683594 L 12.648438 -12.019531 C 12.648438 -12.324219 13.167969 -12.449219 13.796875 -12.449219 L 13.796875 -12.699219 L 11.929688 -12.699219 L 7.382812 -1.222656 L 2.75 -12.699219 L 0.898438 -12.699219 L 0.898438 -12.449219 C 1.527344 -12.449219 2.03125 -12.324219 2.046875 -12.019531 L 2.046875 -0.683594 C 2.046875 -0.359375 1.527344 -0.25 0.898438 -0.25 Z M 0.898438 -0.25 "/></g></g></g><g fill="#000000" fill-opacity="1"><g transform="translate(70.49216, 44.378876)"><g><path d="M 0.898438 -0.25 L 0.898438 0 L 3.84375 0 L 3.84375 -0.25 L 3.609375 -0.25 C 3.289062 -0.269531 2.695312 -0.359375 2.695312 -0.683594 L 2.695312 -12 C 2.695312 -12.304688 3.289062 -12.394531 3.609375 -12.429688 L 3.84375 -12.429688 L 3.84375 -12.683594 L 0.898438 -12.683594 L 0.898438 -12.429688 L 1.113281 -12.429688 C 1.457031 -12.394531 2.03125 -12.304688 2.046875 -12 L 2.046875 -0.683594 C 2.046875 -0.359375 1.457031 -0.269531 1.113281 -0.25 Z M 0.898438 -0.25 "/></g></g></g><g fill="#000000" fill-opacity="1"><g transform="translate(75.234793, 44.378876)"><g><path d="M 0.898438 -0.269531 L 0.898438 0 L 8.011719 0 L 8.710938 -1.148438 L 8.40625 -1.148438 L 8.40625 -1.132812 C 8.355469 -1.042969 7.851562 -0.269531 7.328125 -0.269531 L 2.675781 -0.269531 L 2.675781 -12 C 2.675781 -12.449219 3.828125 -12.449219 3.828125 -12.449219 L 3.828125 -12.699219 L 0.898438 -12.699219 L 0.898438 -12.449219 C 0.898438 -12.449219 2.03125 -12.449219 2.03125 -12 L 2.03125 -0.699219 C 2.03125 -0.378906 1.4375 -0.289062 1.113281 -0.269531 Z M 0.898438 -0.269531 "/></g></g></g><g fill="#000000" fill-opacity="1"><g transform="translate(84.84581, 44.378876)"><g><path d="M 8.355469 -1.132812 C 8.300781 -1.023438 7.796875 -0.25 7.277344 -0.25 L 2.675781 -0.25 L 2.675781 -6.917969 L 6.917969 -6.917969 C 7.097656 -6.917969 7.292969 -6.484375 7.292969 -6.484375 L 7.417969 -6.484375 L 7.417969 -7.617188 L 7.292969 -7.617188 C 7.292969 -7.617188 7.097656 -7.1875 6.917969 -7.1875 L 2.675781 -7.1875 L 2.675781 -12.429688 L 6.878906 -12.429688 C 7.257812 -12.429688 7.671875 -11.675781 7.707031 -11.605469 L 7.832031 -11.605469 L 7.832031 -12.699219 L 0.898438 -12.699219 L 0.898438 -12.429688 C 0.898438 -12.429688 2.03125 -12.429688 2.03125 -12 L 2.03125 -0.683594 C 2.03125 -0.359375 1.4375 -0.269531 1.113281 -0.25 L 0.898438 -0.25 L 0.898438 0 L 7.957031 0 L 8.660156 -1.132812 Z M 8.355469 -1.132812 "/></g></g></g><g fill="#000000" fill-opacity="1"><g transform="translate(94.402929, 44.378876)"><g/></g></g><g fill="#000000" fill-opacity="1"><g transform="translate(101.588737, 44.378876)"><g><path d="M 2.675781 -0.429688 C 3.933594 0.324219 5.496094 0.503906 6.878906 -0.179688 C 8.011719 -0.753906 8.765625 -1.796875 8.765625 -3 C 8.765625 -4.203125 8.03125 -5.300781 6.773438 -5.890625 L 3.664062 -7.328125 C 2.785156 -7.777344 2.046875 -8.640625 2.046875 -9.574219 L 2.046875 -9.699219 C 2.101562 -11.175781 3.71875 -12.414062 5.066406 -12.414062 C 6.339844 -12.359375 7.527344 -11.585938 8.300781 -10.3125 L 8.515625 -10.4375 L 8.300781 -11.355469 C 8.28125 -11.371094 7.707031 -11.75 7.007812 -12.070312 C 6.917969 -12.109375 6.828125 -12.160156 6.738281 -12.214844 C 6.214844 -12.503906 5.640625 -12.71875 5.066406 -12.71875 C 3.144531 -12.71875 1.671875 -11.535156 1.597656 -9.738281 L 1.597656 -9.558594 C 1.597656 -8.390625 2.28125 -7.3125 3.359375 -6.753906 L 6.429688 -5.335938 C 7.457031 -4.851562 8.265625 -3.988281 8.265625 -3 C 8.265625 -1.976562 7.546875 -0.84375 6.46875 -0.324219 C 5.40625 0.160156 4.078125 0.0351562 3.035156 -0.609375 C 2.261719 -1.097656 1.617188 -1.851562 1.132812 -2.765625 C 1.132812 -2.785156 1.113281 -2.785156 1.113281 -2.785156 L 0.898438 -2.660156 L 0.898438 -2.640625 L 1.222656 -1.277344 C 1.238281 -1.257812 1.851562 -0.863281 2.675781 -0.429688 Z M 2.675781 -0.429688 "/></g></g></g><g fill="#000000" fill-opacity="1"><g transform="translate(111.253641, 44.378876)"><g><path d="M 6.25 0.234375 C 6.917969 0.234375 7.582031 0.0898438 8.210938 -0.214844 L 8.191406 -0.214844 C 9.378906 -0.71875 10.382812 -1.382812 10.382812 -1.382812 L 10.726562 -2.785156 L 10.492188 -2.890625 C 9.558594 -1.113281 7.957031 -0.0351562 6.25 -0.0351562 C 6.125 -0.0351562 6 -0.0351562 5.875 -0.0546875 C 3.46875 -0.394531 1.546875 -3.214844 1.546875 -6.289062 C 1.546875 -9.519531 3.648438 -12.539062 6.25 -12.539062 C 7.851562 -12.539062 9.558594 -11.675781 10.3125 -9.988281 L 10.546875 -10.132812 L 10.527344 -10.132812 L 10.257812 -11.316406 C 10.257812 -11.316406 9.378906 -11.890625 8.371094 -12.339844 L 8.40625 -12.304688 C 7.726562 -12.648438 6.988281 -12.808594 6.25 -12.808594 C 3.289062 -12.808594 0.898438 -9.878906 0.898438 -6.289062 C 0.898438 -2.695312 3.289062 0.234375 6.25 0.234375 Z M 6.25 0.234375 "/></g></g></g><g fill="#000000" fill-opacity="1"><g transform="translate(122.876681, 44.378876)"><g><path d="M 0.898438 -0.25 L 0.898438 0 L 3.84375 0 L 3.84375 -0.25 C 3.269531 -0.25 2.351562 -0.304688 2.515625 -0.683594 L 2.496094 -0.683594 L 4.367188 -5.496094 L 9.25 -5.496094 L 11.101562 -0.683594 C 11.246094 -0.324219 10.636719 -0.25 10.058594 -0.25 L 10.058594 0 L 13.007812 0 L 13.007812 -0.25 C 12.484375 -0.25 12 -0.324219 11.820312 -0.628906 L 7.148438 -12.683594 L 7.148438 -12.699219 L 6.878906 -12.699219 L 2.210938 -0.664062 C 2.03125 -0.289062 1.402344 -0.25 0.898438 -0.25 Z M 9.144531 -5.75 L 4.472656 -5.75 L 6.808594 -11.785156 Z M 9.144531 -5.75 "/></g></g></g><g fill="#000000" fill-opacity="1"><g transform="translate(136.781212, 44.378876)"><g><path d="M 0.898438 -0.25 L 0.898438 0 L 3.449219 0 L 3.449219 -0.25 C 2.820312 -0.25 2.300781 -0.359375 2.300781 -0.683594 L 2.300781 -12.109375 L 9.96875 0 L 10.203125 0 L 10.203125 -12.019531 C 10.203125 -12.324219 10.726562 -12.449219 11.355469 -12.449219 L 11.355469 -12.699219 L 8.800781 -12.699219 L 8.800781 -12.449219 C 9.429688 -12.449219 9.953125 -12.324219 9.953125 -12.019531 L 9.953125 -1.277344 L 2.675781 -12.699219 L 0.898438 -12.699219 L 0.898438 -12.449219 C 1.527344 -12.449219 2.03125 -12.324219 2.03125 -12.019531 L 2.03125 -0.683594 C 2.03125 -0.359375 1.527344 -0.25 0.898438 -0.25 Z M 0.898438 -0.25 "/></g></g></g><g fill="#000000" fill-opacity="1"><g transform="translate(149.033009, 44.378876)"><g/></g></g><g fill="#000000" fill-opacity="1"><g transform="translate(156.218817, 44.378876)"><g><path d="M 2.675781 -0.429688 C 3.933594 0.324219 5.496094 0.503906 6.878906 -0.179688 C 8.011719 -0.753906 8.765625 -1.796875 8.765625 -3 C 8.765625 -4.203125 8.03125 -5.300781 6.773438 -5.890625 L 3.664062 -7.328125 C 2.785156 -7.777344 2.046875 -8.640625 2.046875 -9.574219 L 2.046875 -9.699219 C 2.101562 -11.175781 3.71875 -12.414062 5.066406 -12.414062 C 6.339844 -12.359375 7.527344 -11.585938 8.300781 -10.3125 L 8.515625 -10.4375 L 8.300781 -11.355469 C 8.28125 -11.371094 7.707031 -11.75 7.007812 -12.070312 C 6.917969 -12.109375 6.828125 -12.160156 6.738281 -12.214844 C 6.214844 -12.503906 5.640625 -12.71875 5.066406 -12.71875 C 3.144531 -12.71875 1.671875 -11.535156 1.597656 -9.738281 L 1.597656 -9.558594 C 1.597656 -8.390625 2.28125 -7.3125 3.359375 -6.753906 L 6.429688 -5.335938 C 7.457031 -4.851562 8.265625 -3.988281 8.265625 -3 C 8.265625 -1.976562 7.546875 -0.84375 6.46875 -0.324219 C 5.40625 0.160156 4.078125 0.0351562 3.035156 -0.609375 C 2.261719 -1.097656 1.617188 -1.851562 1.132812 -2.765625 C 1.132812 -2.785156 1.113281 -2.785156 1.113281 -2.785156 L 0.898438 -2.660156 L 0.898438 -2.640625 L 1.222656 -1.277344 C 1.238281 -1.257812 1.851562 -0.863281 2.675781 -0.429688 Z M 2.675781 -0.429688 "/></g></g></g><g fill="#000000" fill-opacity="1"><g transform="translate(165.883721, 44.378876)"><g><path d="M 6.25 0.269531 L 6.414062 0.269531 C 9.414062 0.269531 11.765625 -2.839844 11.765625 -6.25 C 11.765625 -9.648438 9.378906 -12.773438 6.414062 -12.773438 L 6.25 -12.773438 C 3.304688 -12.773438 0.898438 -9.699219 0.898438 -6.25 C 0.898438 -2.855469 3.304688 0.269531 6.25 0.269531 Z M 4.726562 -0.359375 C 2.875 -1.257812 1.546875 -3.683594 1.546875 -6.25 C 1.546875 -9.070312 3.160156 -11.695312 5.28125 -12.359375 C 5.621094 -12.46875 5.980469 -12.503906 6.324219 -12.503906 C 6.683594 -12.503906 7.023438 -12.449219 7.382812 -12.359375 C 9.503906 -11.730469 11.101562 -9.070312 11.101562 -6.25 C 11.101562 -3.683594 9.789062 -1.257812 7.941406 -0.359375 C 6.84375 0.109375 5.820312 0.109375 4.726562 -0.359375 Z M 4.726562 -0.359375 "/></g></g></g><g fill="#000000" fill-opacity="1"><g transform="translate(178.548704, 44.378876)"><g><path d="M 0.898438 -0.269531 L 0.898438 0 L 8.011719 0 L 8.710938 -1.148438 L 8.40625 -1.148438 L 8.40625 -1.132812 C 8.355469 -1.042969 7.851562 -0.269531 7.328125 -0.269531 L 2.675781 -0.269531 L 2.675781 -12 C 2.675781 -12.449219 3.828125 -12.449219 3.828125 -12.449219 L 3.828125 -12.699219 L 0.898438 -12.699219 L 0.898438 -12.449219 C 0.898438 -12.449219 2.03125 -12.449219 2.03125 -12 L 2.03125 -0.699219 C 2.03125 -0.378906 1.4375 -0.289062 1.113281 -0.269531 Z M 0.898438 -0.269531 "/></g></g></g><g fill="#000000" fill-opacity="1"><g transform="translate(188.159721, 44.378876)"><g><path d="M 6.25 0.160156 C 8.585938 0.160156 10.277344 -1.742188 10.277344 -4.367188 L 10.277344 -12.019531 C 10.277344 -12.339844 10.867188 -12.429688 11.191406 -12.449219 L 11.40625 -12.449219 L 11.40625 -12.71875 L 8.875 -12.71875 L 8.875 -12.449219 L 9.089844 -12.449219 C 9.414062 -12.429688 10.007812 -12.339844 10.007812 -12.019531 L 10.007812 -4.367188 C 10.007812 -1.902344 8.441406 -0.0898438 6.25 -0.0898438 C 5.371094 -0.0898438 4.671875 -0.378906 3.933594 -1.078125 C 3.160156 -1.867188 2.695312 -3.054688 2.695312 -4.367188 L 2.695312 -12.035156 C 2.710938 -12.339844 3.289062 -12.429688 3.609375 -12.449219 L 3.84375 -12.449219 L 3.84375 -12.71875 L 0.898438 -12.71875 L 0.898438 -12.449219 L 1.132812 -12.449219 C 1.457031 -12.429688 2.011719 -12.339844 2.046875 -12.054688 L 2.046875 -4.367188 C 2.046875 -1.636719 3.808594 0.160156 6.25 0.160156 Z M 6.25 0.160156 "/></g></g></g><g fill="#000000" fill-opacity="1"><g transform="translate(200.465417, 44.378876)"><g><path d="M 4.636719 -0.269531 L 4.636719 0 L 7.582031 0 L 7.582031 -0.269531 C 6.953125 -0.269531 6.414062 -0.378906 6.414062 -0.699219 L 6.414062 -12.429688 L 10.328125 -12.429688 C 10.726562 -12.429688 11.121094 -11.675781 11.15625 -11.605469 L 11.300781 -11.605469 L 11.300781 -12.699219 L 0.898438 -12.699219 L 0.898438 -11.605469 L 1.042969 -11.605469 C 1.078125 -11.675781 1.472656 -12.429688 1.867188 -12.429688 L 5.785156 -12.429688 L 5.785156 -0.699219 C 5.785156 -0.378906 5.261719 -0.269531 4.636719 -0.269531 Z M 4.636719 -0.269531 "/></g></g></g><g fill="#000000" fill-opacity="1"><g transform="translate(212.663326, 44.378876)"><g><path d="M 0.898438 -0.25 L 0.898438 0 L 3.84375 0 L 3.84375 -0.25 L 3.609375 -0.25 C 3.289062 -0.269531 2.695312 -0.359375 2.695312 -0.683594 L 2.695312 -12 C 2.695312 -12.304688 3.289062 -12.394531 3.609375 -12.429688 L 3.84375 -12.429688 L 3.84375 -12.683594 L 0.898438 -12.683594 L 0.898438 -12.429688 L 1.113281 -12.429688 C 1.457031 -12.394531 2.03125 -12.304688 2.046875 -12 L 2.046875 -0.683594 C 2.046875 -0.359375 1.457031 -0.269531 1.113281 -0.25 Z M 0.898438 -0.25 "/></g></g></g><g fill="#000000" fill-opacity="1"><g transform="translate(217.405959, 44.378876)"><g><path d="M 6.25 0.269531 L 6.414062 0.269531 C 9.414062 0.269531 11.765625 -2.839844 11.765625 -6.25 C 11.765625 -9.648438 9.378906 -12.773438 6.414062 -12.773438 L 6.25 -12.773438 C 3.304688 -12.773438 0.898438 -9.699219 0.898438 -6.25 C 0.898438 -2.855469 3.304688 0.269531 6.25 0.269531 Z M 4.726562 -0.359375 C 2.875 -1.257812 1.546875 -3.683594 1.546875 -6.25 C 1.546875 -9.070312 3.160156 -11.695312 5.28125 -12.359375 C 5.621094 -12.46875 5.980469 -12.503906 6.324219 -12.503906 C 6.683594 -12.503906 7.023438 -12.449219 7.382812 -12.359375 C 9.503906 -11.730469 11.101562 -9.070312 11.101562 -6.25 C 11.101562 -3.683594 9.789062 -1.257812 7.941406 -0.359375 C 6.84375 0.109375 5.820312 0.109375 4.726562 -0.359375 Z M 4.726562 -0.359375 "/></g></g></g><g fill="#000000" fill-opacity="1"><g transform="translate(230.070942, 44.378876)"><g><path d="M 0.898438 -0.25 L 0.898438 0 L 3.449219 0 L 3.449219 -0.25 C 2.820312 -0.25 2.300781 -0.359375 2.300781 -0.683594 L 2.300781 -12.109375 L 9.96875 0 L 10.203125 0 L 10.203125 -12.019531 C 10.203125 -12.324219 10.726562 -12.449219 11.355469 -12.449219 L 11.355469 -12.699219 L 8.800781 -12.699219 L 8.800781 -12.449219 C 9.429688 -12.449219 9.953125 -12.324219 9.953125 -12.019531 L 9.953125 -1.277344 L 2.675781 -12.699219 L 0.898438 -12.699219 L 0.898438 -12.449219 C 1.527344 -12.449219 2.03125 -12.324219 2.03125 -12.019531 L 2.03125 -0.683594 C 2.03125 -0.359375 1.527344 -0.25 0.898438 -0.25 Z M 0.898438 -0.25 "/></g></g></g><g fill="#000000" fill-opacity="1"><g transform="translate(242.322739, 44.378876)"><g><path d="M 2.675781 -0.429688 C 3.933594 0.324219 5.496094 0.503906 6.878906 -0.179688 C 8.011719 -0.753906 8.765625 -1.796875 8.765625 -3 C 8.765625 -4.203125 8.03125 -5.300781 6.773438 -5.890625 L 3.664062 -7.328125 C 2.785156 -7.777344 2.046875 -8.640625 2.046875 -9.574219 L 2.046875 -9.699219 C 2.101562 -11.175781 3.71875 -12.414062 5.066406 -12.414062 C 6.339844 -12.359375 7.527344 -11.585938 8.300781 -10.3125 L 8.515625 -10.4375 L 8.300781 -11.355469 C 8.28125 -11.371094 7.707031 -11.75 7.007812 -12.070312 C 6.917969 -12.109375 6.828125 -12.160156 6.738281 -12.214844 C 6.214844 -12.503906 5.640625 -12.71875 5.066406 -12.71875 C 3.144531 -12.71875 1.671875 -11.535156 1.597656 -9.738281 L 1.597656 -9.558594 C 1.597656 -8.390625 2.28125 -7.3125 3.359375 -6.753906 L 6.429688 -5.335938 C 7.457031 -4.851562 8.265625 -3.988281 8.265625 -3 C 8.265625 -1.976562 7.546875 -0.84375 6.46875 -0.324219 C 5.40625 0.160156 4.078125 0.0351562 3.035156 -0.609375 C 2.261719 -1.097656 1.617188 -1.851562 1.132812 -2.765625 C 1.132812 -2.785156 1.113281 -2.785156 1.113281 -2.785156 L 0.898438 -2.660156 L 0.898438 -2.640625 L 1.222656 -1.277344 C 1.238281 -1.257812 1.851562 -0.863281 2.675781 -0.429688 Z M 2.675781 -0.429688 "/></g></g></g><g fill="#030c2b" fill-opacity="1"><g transform="translate(111.774159, 99.47165)"><g><path d="M 68.015625 -31.890625 C 67.796875 -31.835938 67.601562 -31.84375 67.4375 -31.90625 C 67.269531 -31.96875 67.113281 -32.039062 66.96875 -32.125 C 66.894531 -32.15625 66.832031 -32.191406 66.78125 -32.234375 C 64.707031 -33.359375 62.507812 -34.203125 60.1875 -34.765625 C 54.144531 -36.210938 47.988281 -35.609375 41.71875 -32.953125 C 39.425781 -31.992188 37.226562 -30.832031 35.125 -29.46875 C 33.03125 -28.113281 30.984375 -26.632812 28.984375 -25.03125 C 25.765625 -22.414062 22.800781 -19.554688 20.09375 -16.453125 C 17.382812 -13.359375 14.890625 -10.050781 12.609375 -6.53125 C 11.785156 -5.28125 10.988281 -4.015625 10.21875 -2.734375 C 10.207031 -2.691406 10.1875 -2.65625 10.15625 -2.625 C 9.570312 -1.707031 9.09375 -0.738281 8.71875 0.28125 C 8.539062 0.757812 8.316406 1.210938 8.046875 1.640625 C 7.722656 2.210938 7.28125 2.429688 6.71875 2.296875 C 6.382812 2.222656 6.25 2.015625 6.3125 1.671875 C 6.34375 1.421875 6.421875 1.179688 6.546875 0.953125 C 7.148438 -0.253906 7.6875 -1.472656 8.15625 -2.703125 C 8.625 -3.929688 9.0625 -5.171875 9.46875 -6.421875 C 9.570312 -6.742188 9.679688 -7.054688 9.796875 -7.359375 C 12.242188 -14.523438 14.507812 -21.738281 16.59375 -29 C 16.632812 -29.15625 16.664062 -29.3125 16.6875 -29.46875 C 16.6875 -29.539062 16.691406 -29.625 16.703125 -29.71875 C 16.503906 -29.695312 16.351562 -29.628906 16.25 -29.515625 C 16.144531 -29.410156 16.054688 -29.289062 15.984375 -29.15625 C 15.972656 -29.101562 15.945312 -29.050781 15.90625 -29 C 15.78125 -28.820312 15.664062 -28.628906 15.5625 -28.421875 C 14.375 -26.566406 13.191406 -24.703125 12.015625 -22.828125 C 10.179688 -19.828125 8.34375 -16.820312 6.5 -13.8125 C 3.832031 -9.476562 1.148438 -5.128906 -1.546875 -0.765625 C -2.140625 0.203125 -2.765625 1.140625 -3.421875 2.046875 C -3.585938 2.285156 -3.738281 2.507812 -3.875 2.71875 C -4.125 3.132812 -4.472656 3.382812 -4.921875 3.46875 C -5.054688 3.488281 -5.175781 3.484375 -5.28125 3.453125 C -5.382812 3.421875 -5.453125 3.351562 -5.484375 3.25 C -5.523438 3.175781 -5.523438 3.085938 -5.484375 2.984375 C -5.453125 2.890625 -5.40625 2.804688 -5.34375 2.734375 C 1.082031 -7.785156 7.53125 -18.296875 14 -28.796875 C 14.59375 -29.734375 15.21875 -30.648438 15.875 -31.546875 C 16.019531 -31.742188 16.15625 -31.9375 16.28125 -32.125 C 16.65625 -32.675781 17.144531 -33.035156 17.75 -33.203125 C 18.125 -33.273438 18.414062 -33.222656 18.625 -33.046875 C 18.84375 -32.867188 18.945312 -32.578125 18.9375 -32.171875 C 18.832031 -31.015625 18.597656 -29.867188 18.234375 -28.734375 C 16.460938 -22.617188 14.566406 -16.539062 12.546875 -10.5 C 12.535156 -10.425781 12.515625 -10.363281 12.484375 -10.3125 C 12.398438 -10.132812 12.34375 -9.953125 12.3125 -9.765625 C 12.289062 -9.585938 12.332031 -9.394531 12.4375 -9.1875 C 12.582031 -9.382812 12.726562 -9.570312 12.875 -9.75 C 13.175781 -10.125 13.460938 -10.5 13.734375 -10.875 C 16.910156 -15.375 20.535156 -19.457031 24.609375 -23.125 C 26.953125 -25.226562 29.378906 -27.171875 31.890625 -28.953125 C 34.398438 -30.734375 37.039062 -32.253906 39.8125 -33.515625 C 45.53125 -36.078125 51.273438 -37.03125 57.046875 -36.375 C 60.691406 -35.925781 64.085938 -34.867188 67.234375 -33.203125 C 67.304688 -33.171875 67.382812 -33.132812 67.46875 -33.09375 C 67.632812 -33.019531 67.785156 -32.9375 67.921875 -32.84375 C 68.066406 -32.757812 68.1875 -32.628906 68.28125 -32.453125 C 68.289062 -32.410156 68.296875 -32.359375 68.296875 -32.296875 C 68.296875 -32.242188 68.289062 -32.1875 68.28125 -32.125 C 68.25 -32.070312 68.207031 -32.019531 68.15625 -31.96875 C 68.113281 -31.925781 68.066406 -31.898438 68.015625 -31.890625 Z M 68.015625 -31.890625 "/></g></g></g><g fill="#030c2b" fill-opacity="1"><g transform="translate(129.436751, 99.47165)"><g><path d="M 8.828125 -6.203125 C 9.023438 -6.097656 9.039062 -5.832031 8.875 -5.40625 C 8.644531 -5.101562 8.394531 -4.816406 8.125 -4.546875 C 7.851562 -4.273438 7.5625 -4.035156 7.25 -3.828125 C 7.226562 -3.828125 7.21875 -3.816406 7.21875 -3.796875 C 7 -3.648438 6.773438 -3.523438 6.546875 -3.421875 C 4.597656 -2.722656 3.601562 -3.132812 3.5625 -4.65625 C 2.78125 -3.96875 2.253906 -3.550781 1.984375 -3.40625 C 1.347656 -3.019531 0.65625 -2.847656 -0.09375 -2.890625 C -0.644531 -2.921875 -1.019531 -3.085938 -1.21875 -3.390625 C -1.414062 -3.691406 -1.398438 -4.101562 -1.171875 -4.625 C -0.816406 -5.445312 -0.304688 -6.179688 0.359375 -6.828125 C 1.128906 -7.535156 1.984375 -8.109375 2.921875 -8.546875 C 3.421875 -8.796875 3.953125 -8.890625 4.515625 -8.828125 C 5.066406 -8.796875 5.394531 -8.484375 5.5 -7.890625 C 5.550781 -7.710938 5.507812 -7.554688 5.375 -7.421875 C 5.195312 -7.253906 4.988281 -7.21875 4.75 -7.3125 C 4.738281 -7.3125 4.71875 -7.3125 4.6875 -7.3125 C 4.65625 -7.320312 4.632812 -7.335938 4.625 -7.359375 C 4.382812 -7.679688 4.144531 -7.816406 3.90625 -7.765625 C 3.664062 -7.710938 3.410156 -7.601562 3.140625 -7.4375 C 1.890625 -6.707031 0.960938 -5.691406 0.359375 -4.390625 C 0.316406 -4.328125 0.289062 -4.257812 0.28125 -4.1875 C 0.28125 -4.125 0.304688 -4.070312 0.359375 -4.03125 C 0.503906 -3.976562 0.664062 -3.988281 0.84375 -4.0625 C 1.019531 -4.132812 1.195312 -4.234375 1.375 -4.359375 C 1.550781 -4.492188 1.703125 -4.609375 1.828125 -4.703125 C 1.847656 -4.722656 1.859375 -4.734375 1.859375 -4.734375 C 2.441406 -5.234375 3.019531 -5.742188 3.59375 -6.265625 C 3.84375 -6.535156 4.15625 -6.6875 4.53125 -6.71875 C 5.070312 -6.71875 5.296875 -6.476562 5.203125 -6 C 5.148438 -5.8125 5.097656 -5.628906 5.046875 -5.453125 C 4.835938 -4.679688 4.828125 -4.226562 5.015625 -4.09375 C 5.210938 -3.96875 5.507812 -3.96875 5.90625 -4.09375 C 6.3125 -4.226562 6.710938 -4.484375 7.109375 -4.859375 C 7.515625 -5.242188 7.851562 -5.59375 8.125 -5.90625 C 8.40625 -6.21875 8.640625 -6.316406 8.828125 -6.203125 Z M 8.828125 -6.203125 "/></g></g></g><g fill="#030c2b" fill-opacity="1"><g transform="translate(137.512824, 99.47165)"><g><path d="M 8.78125 -6.34375 C 8.820312 -6.34375 8.867188 -6.332031 8.921875 -6.3125 C 8.972656 -6.289062 9.015625 -6.265625 9.046875 -6.234375 C 9.160156 -6.128906 9.175781 -6.003906 9.09375 -5.859375 C 8.976562 -5.734375 8.867188 -5.628906 8.765625 -5.546875 C 8.140625 -4.960938 7.441406 -4.476562 6.671875 -4.09375 C 5.472656 -3.488281 4.148438 -3.175781 2.703125 -3.15625 C 2.171875 -3.132812 1.617188 -3.222656 1.046875 -3.421875 C 0.00390625 -3.828125 -0.414062 -4.578125 -0.21875 -5.671875 C 0.0195312 -6.691406 0.59375 -7.535156 1.5 -8.203125 C 2.40625 -8.878906 3.378906 -9.171875 4.421875 -9.078125 C 4.617188 -9.046875 4.8125 -9 5 -8.9375 C 5.1875 -8.863281 5.320312 -8.753906 5.40625 -8.609375 C 5.5 -8.472656 5.507812 -8.359375 5.4375 -8.265625 C 5.238281 -8.054688 5.015625 -8.003906 4.765625 -8.109375 C 4.390625 -8.273438 4.046875 -8.320312 3.734375 -8.25 C 3.421875 -8.175781 3.109375 -8.003906 2.796875 -7.734375 C 2.484375 -7.503906 2.144531 -7.164062 1.78125 -6.71875 C 1.425781 -6.269531 1.203125 -5.816406 1.109375 -5.359375 C 1.015625 -4.898438 1.21875 -4.53125 1.71875 -4.25 C 2.289062 -4 2.867188 -3.9375 3.453125 -4.0625 C 4.929688 -4.363281 6.304688 -4.925781 7.578125 -5.75 C 7.691406 -5.8125 7.796875 -5.878906 7.890625 -5.953125 C 8.023438 -6.054688 8.160156 -6.140625 8.296875 -6.203125 C 8.441406 -6.273438 8.601562 -6.320312 8.78125 -6.34375 Z M 8.78125 -6.34375 "/></g></g></g><g fill="#030c2b" fill-opacity="1"><g transform="translate(145.637622, 99.47165)"><g><path d="M 8.78125 -6.34375 C 8.820312 -6.34375 8.867188 -6.332031 8.921875 -6.3125 C 8.972656 -6.289062 9.015625 -6.265625 9.046875 -6.234375 C 9.160156 -6.128906 9.175781 -6.003906 9.09375 -5.859375 C 8.976562 -5.734375 8.867188 -5.628906 8.765625 -5.546875 C 8.140625 -4.960938 7.441406 -4.476562 6.671875 -4.09375 C 5.472656 -3.488281 4.148438 -3.175781 2.703125 -3.15625 C 2.171875 -3.132812 1.617188 -3.222656 1.046875 -3.421875 C 0.00390625 -3.828125 -0.414062 -4.578125 -0.21875 -5.671875 C 0.0195312 -6.691406 0.59375 -7.535156 1.5 -8.203125 C 2.40625 -8.878906 3.378906 -9.171875 4.421875 -9.078125 C 4.617188 -9.046875 4.8125 -9 5 -8.9375 C 5.1875 -8.863281 5.320312 -8.753906 5.40625 -8.609375 C 5.5 -8.472656 5.507812 -8.359375 5.4375 -8.265625 C 5.238281 -8.054688 5.015625 -8.003906 4.765625 -8.109375 C 4.390625 -8.273438 4.046875 -8.320312 3.734375 -8.25 C 3.421875 -8.175781 3.109375 -8.003906 2.796875 -7.734375 C 2.484375 -7.503906 2.144531 -7.164062 1.78125 -6.71875 C 1.425781 -6.269531 1.203125 -5.816406 1.109375 -5.359375 C 1.015625 -4.898438 1.21875 -4.53125 1.71875 -4.25 C 2.289062 -4 2.867188 -3.9375 3.453125 -4.0625 C 4.929688 -4.363281 6.304688 -4.925781 7.578125 -5.75 C 7.691406 -5.8125 7.796875 -5.878906 7.890625 -5.953125 C 8.023438 -6.054688 8.160156 -6.140625 8.296875 -6.203125 C 8.441406 -6.273438 8.601562 -6.320312 8.78125 -6.34375 Z M 8.78125 -6.34375 "/></g></g></g><g fill="#030c2b" fill-opacity="1"><g transform="translate(153.762419, 99.47165)"><g><path d="M 8.828125 -6.203125 C 9.023438 -6.097656 9.039062 -5.832031 8.875 -5.40625 C 8.644531 -5.101562 8.394531 -4.816406 8.125 -4.546875 C 7.851562 -4.273438 7.5625 -4.035156 7.25 -3.828125 C 7.226562 -3.828125 7.21875 -3.816406 7.21875 -3.796875 C 7 -3.648438 6.773438 -3.523438 6.546875 -3.421875 C 4.597656 -2.722656 3.601562 -3.132812 3.5625 -4.65625 C 2.78125 -3.96875 2.253906 -3.550781 1.984375 -3.40625 C 1.347656 -3.019531 0.65625 -2.847656 -0.09375 -2.890625 C -0.644531 -2.921875 -1.019531 -3.085938 -1.21875 -3.390625 C -1.414062 -3.691406 -1.398438 -4.101562 -1.171875 -4.625 C -0.816406 -5.445312 -0.304688 -6.179688 0.359375 -6.828125 C 1.128906 -7.535156 1.984375 -8.109375 2.921875 -8.546875 C 3.421875 -8.796875 3.953125 -8.890625 4.515625 -8.828125 C 5.066406 -8.796875 5.394531 -8.484375 5.5 -7.890625 C 5.550781 -7.710938 5.507812 -7.554688 5.375 -7.421875 C 5.195312 -7.253906 4.988281 -7.21875 4.75 -7.3125 C 4.738281 -7.3125 4.71875 -7.3125 4.6875 -7.3125 C 4.65625 -7.320312 4.632812 -7.335938 4.625 -7.359375 C 4.382812 -7.679688 4.144531 -7.816406 3.90625 -7.765625 C 3.664062 -7.710938 3.410156 -7.601562 3.140625 -7.4375 C 1.890625 -6.707031 0.960938 -5.691406 0.359375 -4.390625 C 0.316406 -4.328125 0.289062 -4.257812 0.28125 -4.1875 C 0.28125 -4.125 0.304688 -4.070312 0.359375 -4.03125 C 0.503906 -3.976562 0.664062 -3.988281 0.84375 -4.0625 C 1.019531 -4.132812 1.195312 -4.234375 1.375 -4.359375 C 1.550781 -4.492188 1.703125 -4.609375 1.828125 -4.703125 C 1.847656 -4.722656 1.859375 -4.734375 1.859375 -4.734375 C 2.441406 -5.234375 3.019531 -5.742188 3.59375 -6.265625 C 3.84375 -6.535156 4.15625 -6.6875 4.53125 -6.71875 C 5.070312 -6.71875 5.296875 -6.476562 5.203125 -6 C 5.148438 -5.8125 5.097656 -5.628906 5.046875 -5.453125 C 4.835938 -4.679688 4.828125 -4.226562 5.015625 -4.09375 C 5.210938 -3.96875 5.507812 -3.96875 5.90625 -4.09375 C 6.3125 -4.226562 6.710938 -4.484375 7.109375 -4.859375 C 7.515625 -5.242188 7.851562 -5.59375 8.125 -5.90625 C 8.40625 -6.21875 8.640625 -6.316406 8.828125 -6.203125 Z M 8.828125 -6.203125 "/></g></g></g><g fill="#030c2b" fill-opacity="1"><g transform="translate(161.838493, 99.47165)"><g><path d="M 8.78125 -6.34375 C 8.820312 -6.34375 8.867188 -6.332031 8.921875 -6.3125 C 8.972656 -6.289062 9.015625 -6.265625 9.046875 -6.234375 C 9.160156 -6.128906 9.175781 -6.003906 9.09375 -5.859375 C 8.976562 -5.734375 8.867188 -5.628906 8.765625 -5.546875 C 8.140625 -4.960938 7.441406 -4.476562 6.671875 -4.09375 C 5.472656 -3.488281 4.148438 -3.175781 2.703125 -3.15625 C 2.171875 -3.132812 1.617188 -3.222656 1.046875 -3.421875 C 0.00390625 -3.828125 -0.414062 -4.578125 -0.21875 -5.671875 C 0.0195312 -6.691406 0.59375 -7.535156 1.5 -8.203125 C 2.40625 -8.878906 3.378906 -9.171875 4.421875 -9.078125 C 4.617188 -9.046875 4.8125 -9 5 -8.9375 C 5.1875 -8.863281 5.320312 -8.753906 5.40625 -8.609375 C 5.5 -8.472656 5.507812 -8.359375 5.4375 -8.265625 C 5.238281 -8.054688 5.015625 -8.003906 4.765625 -8.109375 C 4.390625 -8.273438 4.046875 -8.320312 3.734375 -8.25 C 3.421875 -8.175781 3.109375 -8.003906 2.796875 -7.734375 C 2.484375 -7.503906 2.144531 -7.164062 1.78125 -6.71875 C 1.425781 -6.269531 1.203125 -5.816406 1.109375 -5.359375 C 1.015625 -4.898438 1.21875 -4.53125 1.71875 -4.25 C 2.289062 -4 2.867188 -3.9375 3.453125 -4.0625 C 4.929688 -4.363281 6.304688 -4.925781 7.578125 -5.75 C 7.691406 -5.8125 7.796875 -5.878906 7.890625 -5.953125 C 8.023438 -6.054688 8.160156 -6.140625 8.296875 -6.203125 C 8.441406 -6.273438 8.601562 -6.320312 8.78125 -6.34375 Z M 8.78125 -6.34375 "/></g></g></g><g fill="#030c2b" fill-opacity="1"><g transform="translate(169.96329, 99.47165)"><g><path d="M 9.890625 -5.671875 C 9.742188 -5.546875 9.59375 -5.429688 9.4375 -5.328125 C 8.914062 -5.003906 8.441406 -4.75 8.015625 -4.5625 C 7.597656 -4.375 7.109375 -4.179688 6.546875 -3.984375 C 5.703125 -3.734375 5.160156 -3.789062 4.921875 -4.15625 C 4.679688 -4.519531 4.640625 -5.023438 4.796875 -5.671875 C 5.023438 -6.597656 5.15625 -7.273438 5.1875 -7.703125 C 5.226562 -8.140625 5.085938 -8.289062 4.765625 -8.15625 C 4.441406 -8.019531 3.859375 -7.578125 3.015625 -6.828125 C 1.835938 -5.804688 0.832031 -4.644531 0 -3.34375 C -0.101562 -3.164062 -0.234375 -3.019531 -0.390625 -2.90625 C -0.546875 -2.789062 -0.738281 -2.734375 -0.96875 -2.734375 C -1.1875 -2.734375 -1.34375 -2.789062 -1.4375 -2.90625 C -1.53125 -3.019531 -1.535156 -3.171875 -1.453125 -3.359375 C -0.972656 -4.421875 -0.476562 -5.46875 0.03125 -6.5 C 0.882812 -8.3125 1.734375 -10.109375 2.578125 -11.890625 C 3.203125 -13.234375 3.816406 -14.570312 4.421875 -15.90625 C 4.796875 -16.695312 5.160156 -17.488281 5.515625 -18.28125 C 5.546875 -18.34375 5.582031 -18.410156 5.625 -18.484375 C 5.65625 -18.578125 5.691406 -18.664062 5.734375 -18.75 C 5.785156 -18.84375 5.835938 -18.941406 5.890625 -19.046875 C 5.941406 -19.128906 6.035156 -19.195312 6.171875 -19.25 C 6.304688 -19.3125 6.441406 -19.347656 6.578125 -19.359375 C 6.710938 -19.378906 6.816406 -19.375 6.890625 -19.34375 C 6.992188 -19.269531 7.050781 -19.191406 7.0625 -19.109375 C 7.070312 -19.035156 7.054688 -18.953125 7.015625 -18.859375 C 7.003906 -18.847656 7 -18.820312 7 -18.78125 C 6.832031 -18.300781 6.660156 -17.835938 6.484375 -17.390625 C 5.453125 -14.898438 4.328125 -12.453125 3.109375 -10.046875 C 3.015625 -9.878906 2.910156 -9.679688 2.796875 -9.453125 C 2.609375 -9.128906 2.4375 -8.8125 2.28125 -8.5 C 2.132812 -8.1875 2.085938 -7.976562 2.140625 -7.875 C 2.191406 -7.769531 2.429688 -7.847656 2.859375 -8.109375 C 2.992188 -8.203125 3.113281 -8.289062 3.21875 -8.375 C 3.5625 -8.601562 3.898438 -8.820312 4.234375 -9.03125 C 4.523438 -9.226562 4.847656 -9.332031 5.203125 -9.34375 C 6.054688 -9.40625 6.535156 -9.019531 6.640625 -8.1875 C 6.679688 -7.851562 6.664062 -7.523438 6.59375 -7.203125 C 6.53125 -6.878906 6.457031 -6.554688 6.375 -6.234375 C 6.351562 -6.148438 6.335938 -6.0625 6.328125 -5.96875 C 6.179688 -5.414062 6.21875 -5.097656 6.4375 -5.015625 C 6.664062 -4.929688 6.976562 -4.972656 7.375 -5.140625 C 7.78125 -5.316406 8.191406 -5.53125 8.609375 -5.78125 C 8.890625 -5.925781 9.132812 -6.050781 9.34375 -6.15625 C 9.5625 -6.257812 9.722656 -6.300781 9.828125 -6.28125 C 10.023438 -6.25 10.113281 -6.171875 10.09375 -6.046875 C 10.082031 -5.921875 10.015625 -5.796875 9.890625 -5.671875 Z M 9.890625 -5.671875 "/></g></g></g><g fill="#030c2b" fill-opacity="1"><g transform="translate(179.257473, 99.47165)"><g><path d="M 6.9375 -4.671875 C 6.46875 -4.210938 5.921875 -3.816406 5.296875 -3.484375 C 4.671875 -3.160156 4.144531 -2.945312 3.71875 -2.84375 C 3.300781 -2.738281 2.867188 -2.679688 2.421875 -2.671875 C 1.710938 -2.640625 1.054688 -2.734375 0.453125 -2.953125 C -0.535156 -3.359375 -0.878906 -4.117188 -0.578125 -5.234375 C -0.285156 -6.203125 0.289062 -6.957031 1.15625 -7.5 C 2.03125 -8.050781 2.925781 -8.316406 3.84375 -8.296875 C 3.84375 -8.296875 3.851562 -8.296875 3.875 -8.296875 C 4.113281 -8.316406 4.335938 -8.300781 4.546875 -8.25 C 4.898438 -8.113281 5.125 -7.898438 5.21875 -7.609375 C 5.320312 -7.316406 5.257812 -6.992188 5.03125 -6.640625 C 4.507812 -5.847656 3.800781 -5.410156 2.90625 -5.328125 C 2.3125 -5.265625 1.738281 -5.289062 1.1875 -5.40625 C 1.082031 -5.425781 0.988281 -5.398438 0.90625 -5.328125 C 0.832031 -5.253906 0.785156 -5.164062 0.765625 -5.0625 C 0.609375 -4.363281 0.820312 -3.914062 1.40625 -3.71875 C 2.144531 -3.46875 2.90625 -3.46875 3.6875 -3.71875 C 4.601562 -4 5.46875 -4.53125 6.28125 -5.3125 C 7.101562 -6.101562 7.578125 -6.472656 7.703125 -6.421875 C 7.828125 -6.367188 7.867188 -6.21875 7.828125 -5.96875 C 7.710938 -5.570312 7.414062 -5.140625 6.9375 -4.671875 Z M 1.75 -6.640625 C 1.707031 -6.585938 1.675781 -6.523438 1.65625 -6.453125 C 1.632812 -6.378906 1.660156 -6.316406 1.734375 -6.265625 C 2.015625 -6.097656 2.320312 -6.035156 2.65625 -6.078125 C 2.988281 -6.128906 3.269531 -6.257812 3.5 -6.46875 C 3.726562 -6.675781 3.828125 -6.925781 3.796875 -7.21875 C 3.773438 -7.332031 3.71875 -7.398438 3.625 -7.421875 C 3.539062 -7.453125 3.453125 -7.457031 3.359375 -7.4375 C 2.765625 -7.332031 2.226562 -7.066406 1.75 -6.640625 Z M 1.75 -6.640625 "/></g></g></g></svg>